<?xml version="1.0" encoding="UTF-8"?>
<svg version="1.1" xmlns="http://www.w3.org/2000/svg" width="1563" height="1563">
<path d="M0 0 C1.60013109 -0.00043708 3.20026211 -0.0013145 4.80039275 -0.00258917 C9.15837709 -0.00480724 13.51633648 -0.00085 17.87431765 0.0041889 C22.58849869 0.00853214 27.30267848 0.00704424 32.01686096 0.00628662 C40.17157699 0.00576383 48.32628498 0.00888499 56.48099899 0.01452446 C68.27115508 0.02267272 80.0613073 0.02525808 91.8514659 0.02651245 C110.98306158 0.02869775 130.11465298 0.03534367 149.24624634 0.04481506 C167.8240456 0.05400269 186.4018437 0.06107691 204.97964478 0.06532288 C206.12595994 0.0655856 207.27227511 0.06584832 208.4533271 0.06611901 C214.20440565 0.0674241 219.9554842 0.0686878 225.70656276 0.06993091 C273.37116161 0.08028727 321.03575254 0.09871681 368.7003479 0.12025452 C368.7003479 28.83025452 368.7003479 57.54025452 368.7003479 87.12025452 C351.31782349 87.1421283 351.31782349 87.1421283 333.58413696 87.16444397 C296.45583175 87.21325819 259.32756426 87.27668302 222.19929816 87.3492408 C216.42686183 87.36050822 210.65442526 87.37164679 204.88198853 87.38270569 C203.15829189 87.38601121 203.15829189 87.38601121 201.39977309 87.38938352 C182.82202785 87.42470309 164.24428265 87.44959733 145.66651633 87.47060154 C126.58726363 87.4924062 107.50805428 87.52550073 88.42883849 87.56895608 C76.66716276 87.59539256 64.90554101 87.61314679 53.14383706 87.61960056 C45.06546867 87.62487901 36.98716804 87.64117789 28.90883604 87.66592018 C24.25631318 87.6798514 19.60391141 87.68913764 14.95136642 87.68526268 C-29.24403617 87.65624678 -64.10288488 94.02743486 -96.56918335 126.38197327 C-117.47887177 148.53672195 -129.09326202 178.99386313 -128.4793396 209.41712952 C-127.46099293 230.40392617 -122.83619878 249.80198537 -112.2996521 268.12025452 C-111.7221521 269.1244342 -111.1446521 270.12861389 -110.5496521 271.16322327 C-93.87506435 298.52961844 -67.29722164 317.67525717 -36.35824585 325.40541077 C-34.73676296 325.77845425 -33.11307983 326.14208712 -31.4871521 326.49525452 C-30.77204468 326.65098938 -30.05693726 326.80672424 -29.32015991 326.96717834 C-17.88460229 329.21998835 -6.07947882 329.27138146 5.5362854 329.43666077 C7.40433334 329.46783241 7.40433334 329.46783241 9.31011963 329.49963379 C13.23181422 329.56426119 17.15356728 329.62360429 21.0753479 329.68275452 C23.75765251 329.72558961 26.43993762 329.76958725 29.1222229 329.81361389 C35.64820536 329.91985153 42.1742441 330.02176781 48.7003479 330.12025452 C48.7003479 329.46025452 48.7003479 328.80025452 48.7003479 328.12025452 C72.9553479 329.11025452 72.9553479 329.11025452 97.7003479 330.12025452 C97.7003479 330.78025452 97.7003479 331.44025452 97.7003479 332.12025452 C98.45573853 332.19502014 99.21112915 332.26978577 99.9894104 332.34681702 C146.08173524 337.8519893 186.5272662 361.72430219 219.7003479 393.12025452 C220.5047229 393.87048889 221.3090979 394.62072327 222.1378479 395.39369202 C260.67425548 432.4161693 281.60116395 489.13680534 282.7315979 541.76478577 C282.91091099 601.62173628 259.01449838 656.22282394 217.24917603 698.59242249 C202.67930452 713.07038578 185.71620202 724.39898523 167.7003479 734.12025452 C167.02971313 734.48844299 166.35907837 734.85663147 165.66812134 735.23597717 C151.01334504 743.22581126 135.2849121 748.99967556 119.0753479 752.93275452 C118.32680542 753.11539856 117.57826294 753.2980426 116.80703735 753.48622131 C114.11451558 754.09617314 111.41381889 754.61014546 108.7003479 755.12025452 C108.07684026 755.24057086 107.45333263 755.3608872 106.81093082 755.48484949 C91.3963393 758.37837174 76.2370447 758.53565787 60.59371948 758.48101807 C57.78396391 758.48065414 54.974219 758.4848333 52.16446662 758.48878556 C46.08730619 758.49496096 40.01023452 758.49015471 33.93308449 758.47787094 C24.8968082 758.45965706 15.86058708 758.45887355 6.82429579 758.46149691 C-8.38111739 758.46542569 -23.58649126 758.45546369 -38.79189301 758.43744469 C-53.83606918 758.41966264 -68.88022898 758.40814061 -83.92441559 758.40488625 C-84.86159757 758.40468003 -85.79877954 758.40447381 -86.76436097 758.40426134 C-91.52429219 758.40324627 -96.28422343 758.40234214 -101.04415467 758.40148071 C-134.71412978 758.395188 -168.38408354 758.37499978 -202.05404663 758.34657288 C-234.75358975 758.31899724 -267.45312702 758.29775736 -300.15267944 758.28504944 C-301.16152477 758.28465486 -302.1703701 758.28426028 -303.2097865 758.28385375 C-313.34149581 758.27989801 -323.47320517 758.2760706 -333.60491456 758.27233717 C-354.2423575 758.26472957 -374.87980005 758.25626581 -395.51724243 758.24728394 C-396.46601263 758.24687207 -397.41478284 758.2464602 -398.39230365 758.24603585 C-447.44771475 758.22466442 -496.50311598 758.19058377 -545.55851746 758.15357971 C-546.24826628 758.1530595 -546.93801511 758.15253929 -547.64866542 758.15200331 C-561.19899459 758.14176063 -574.74932328 758.1309537 -588.2996521 758.12025452 C-588.2996521 729.74025452 -588.2996521 701.36025452 -588.2996521 672.12025452 C-579.95834015 672.11438828 -571.6170282 672.10852203 -563.02294922 672.10247803 C-557.36329648 672.09839555 -551.70364376 672.09429935 -546.04399109 672.09011841 C-544.94114713 672.08930385 -544.94114713 672.08930385 -543.81602349 672.08847283 C-495.11755653 672.05244934 -446.41909533 672.01287019 -397.72064209 671.96127319 C-396.7800127 671.96027763 -395.83938331 671.95928206 -394.87025 671.95825633 C-374.42646232 671.93659638 -353.98267542 671.91427358 -333.53888921 671.89126823 C-323.51285458 671.87998999 -313.48681979 671.86885818 -303.46078491 671.85780334 C-302.46308881 671.85670078 -301.46539271 671.85559821 -300.4374634 671.85446224 C-268.11557278 671.81881154 -235.7936832 671.79282491 -203.47177999 671.77186483 C-170.24906209 671.75026944 -137.02636737 671.71889444 -103.80367076 671.67526339 C-99.10818231 671.6691014 -94.41269373 671.66305088 -89.71720505 671.65706825 C-88.79309099 671.65588737 -87.86897693 671.65470649 -86.91685942 671.65348982 C-72.05796126 671.63478874 -57.19907427 671.62635719 -42.34016578 671.62179327 C-27.39178428 671.61698173 -12.44344527 671.60128616 2.50491343 671.57458886 C11.37940499 671.55906712 20.25381267 671.55178239 29.12831704 671.55648523 C35.06679744 671.55880755 41.00519894 671.55019129 46.94365448 671.53293041 C50.32075725 671.52342019 53.69754207 671.52010163 57.07467274 671.52685889 C74.15533591 671.55754262 91.19350542 671.32257303 107.5128479 665.62025452 C108.23166138 665.37380188 108.95047485 665.12734924 109.69107056 664.87342834 C124.10258392 659.65875625 138.0329815 652.0748244 149.7003479 642.12025452 C150.6903479 641.29138733 151.6803479 640.46252014 152.7003479 639.60853577 C176.41297887 619.18838074 192.11834795 588.34411189 194.7003479 557.12025452 C196.24136799 522.28764717 187.44953572 489.01193481 164.7003479 462.12025452 C163.88179321 461.12638733 163.06323853 460.13252014 162.21987915 459.10853577 C140.63136452 434.12334108 109.22554653 420.25709431 76.7003479 417.12025452 C73.6320193 416.97806987 70.56780066 416.95649228 67.49649048 416.94667053 C66.61221878 416.93998352 65.72794708 416.93329651 64.81687927 416.92640686 C62.90725349 416.91242758 60.99761169 416.90051132 59.0879612 416.89045906 C56.04444796 416.87388615 53.00105024 416.85063663 49.95759583 416.82556152 C41.30720933 416.75528108 32.6567729 416.69519573 24.0062561 416.64344788 C18.69954813 416.61123461 13.39297062 416.56985205 8.08637047 416.52325249 C6.08579598 416.50747075 4.08519157 416.4950429 2.08457375 416.48634529 C-15.46442385 416.40902638 -33.10271669 415.71370746 -50.2996521 411.93275452 C-51.29545288 411.71699768 -52.29125366 411.50124084 -53.31723022 411.27894592 C-94.96106199 401.88594831 -135.82451972 379.24672704 -163.2996521 346.12025452 C-164.10531616 345.21404358 -164.91098022 344.30783264 -165.74105835 343.37416077 C-203.09291749 301.14001547 -217.81120155 246.57817833 -215.2996521 191.12025452 C-214.77875091 183.69769267 -213.72452372 176.41991669 -212.2996521 169.12025452 C-212.13336304 168.25964417 -211.96707397 167.39903381 -211.79574585 166.51234436 C-204.13370702 128.29437847 -185.71334917 93.80560317 -158.82894897 65.72132874 C-157.7666431 64.60916368 -156.71111262 63.49050324 -155.66098022 62.36683655 C-115.35405352 19.3491432 -57.96179104 -0.11930811 0 0 Z " fill="#0E92E4" transform="translate(1150.2996520996094,129.87974548339844)"/>
<path d="M0 0 C25.5633593 0 25.5633593 0 37.75 0.875 C39.09269174 0.9683477 40.4353838 1.06169071 41.77807617 1.1550293 C45.52005547 1.41995044 49.26015938 1.70633431 53 2 C53.89734863 2.06944824 54.79469727 2.13889648 55.71923828 2.21044922 C140.96230028 9.17956163 223.93678251 53.79714428 279.79296875 118.13671875 C281.91382436 120.72114936 283.9587046 123.35245521 286 126 C286.89741094 127.08893982 287.79872765 128.17466811 288.703125 129.2578125 C329.68776803 178.67365993 353.71443798 240.739734 362 304 C362.11859375 304.90169922 362.2371875 305.80339844 362.359375 306.73242188 C366.03471287 336.50703406 365.81366572 368.39008548 361 398 C360.82839355 399.06879395 360.65678711 400.13758789 360.47998047 401.23876953 C347.16084414 481.59398787 304.13658214 561.66718653 239 612 C237.85163675 612.93439934 236.70598349 613.87213529 235.5625 614.8125 C182.02866365 658.68364866 116.48002665 683.35264728 48 690 C47.1501044 690.08267182 46.30020879 690.16534364 45.42455877 690.25052067 C38.26884997 690.90113757 31.1956046 691.14104913 24.01293564 691.12304783 C22.86281402 691.12420167 21.7126924 691.12535552 20.5277186 691.12654433 C16.687552 691.12918369 12.84742762 691.12471099 9.00726318 691.12025452 C6.22091535 691.12013354 3.43456873 691.12152457 0.64822125 691.12284368 C-5.40256216 691.12491095 -11.4533357 691.12328474 -17.50411797 691.11920547 C-26.50133205 691.11315672 -35.49853995 691.11287095 -44.4957557 691.11374746 C-59.63237793 691.11505978 -74.7689958 691.11172598 -89.90561676 691.10573006 C-104.88941723 691.0998099 -119.87321588 691.09596348 -134.85701752 691.09487724 C-135.78920402 691.0948085 -136.72139053 691.09473976 -137.68182511 691.09466894 C-142.41606784 691.0943306 -147.15031056 691.09402922 -151.88455328 691.09374207 C-185.40366827 691.09164252 -218.92278088 691.08490757 -252.44189453 691.07543945 C-285.00211576 691.06625281 -317.56233633 691.05917028 -350.12255859 691.05493164 C-351.12647991 691.05480011 -352.13040122 691.05466859 -353.1647444 691.05453308 C-363.2466771 691.05321454 -373.32860981 691.05193873 -383.41054253 691.05069422 C-403.94799112 691.04815811 -424.48543966 691.04533686 -445.02288818 691.04234314 C-446.43925803 691.0421372 -446.43925803 691.0421372 -447.88424141 691.04192711 C-496.73077613 691.03479968 -545.57730974 691.02343898 -594.42384338 691.0111084 C-595.11088363 691.01093499 -595.79792387 691.01076159 -596.50578352 691.01058293 C-610.00385571 691.00716848 -623.50192785 691.00356631 -637 691 C-637 662.62 -637 634.24 -637 605 C-628.8356723 604.99191315 -620.6713446 604.98382629 -612.25961304 604.97549438 C-558.29348193 604.9213839 -504.32735414 604.86506474 -450.36123657 604.79867554 C-449.43918072 604.79754191 -448.51712487 604.79640829 -447.56712793 604.79524031 C-427.52415416 604.77058385 -407.48118096 604.74549074 -387.4382083 604.71994839 C-377.60789418 604.70742349 -367.77757994 604.694995 -357.94726562 604.68261719 C-356.96907675 604.68138386 -355.99088787 604.68015054 -354.9830569 604.67887984 C-323.32706598 604.63901231 -291.67107223 604.60549955 -260.01507072 604.57531309 C-227.46064753 604.54423613 -194.90623799 604.50668649 -162.35183175 604.46109388 C-157.74451985 604.45464431 -153.13720785 604.44826806 -148.52989578 604.44193649 C-147.16983502 604.44006404 -147.16983502 604.44006404 -145.78229828 604.43815375 C-131.23819688 604.41831823 -116.694097 604.4052241 -102.14998621 604.39470672 C-87.49714026 604.38396483 -72.84431689 604.36598813 -58.19148849 604.34083296 C-49.50616647 604.32613674 -40.82087898 604.31678082 -32.13554442 604.31543317 C-26.30784748 604.31397819 -20.48018912 604.30518889 -14.65250979 604.29084408 C-11.34857165 604.28290938 -8.04477089 604.27890366 -4.74081545 604.28172119 C8.87355264 604.29141322 22.42212161 603.98059725 36.00702477 603.09197044 C37.22367993 603.01247769 38.4403351 602.93298494 39.6938586 602.85108332 C89.51326135 599.29064058 139.23362514 580.71794306 178 549 C179.37285156 547.91332031 179.37285156 547.91332031 180.7734375 546.8046875 C188.17689593 540.88616343 195.12573126 534.51713356 202 528 C202.75410156 527.2884375 203.50820312 526.576875 204.28515625 525.84375 C209.67312521 520.61645606 214.31865739 514.85789243 219 509 C219.63550781 508.24332031 220.27101563 507.48664063 220.92578125 506.70703125 C263.36007343 455.66288269 281.93882756 387.31379996 276.17944336 321.78076172 C269.66000531 256.8292878 238.92374729 192.00790746 188 150 C182.43461956 145.53162133 176.74012917 141.24040565 171 137 C170.44086914 136.58363281 169.88173828 136.16726563 169.30566406 135.73828125 C139.07439481 113.38430802 102.85073536 98.79804797 66 92 C65.2167334 91.85369141 64.4334668 91.70738281 63.62646484 91.55664062 C42.73958382 87.832928 21.09955511 87.34269896 0 86 C0 57.62 0 29.24 0 0 Z " fill="#0E92E4" transform="translate(1199,328)"/>
<path d="M0 0 C1.66353872 -0.00043668 3.32707738 -0.00131337 4.99061567 -0.00258917 C9.5378028 -0.00481509 14.08496618 -0.00083899 18.63215029 0.0041889 C23.54474994 0.00852063 28.45734832 0.00704504 33.36994934 0.00628662 C41.87339786 0.00576311 50.37683868 0.00889186 58.88028526 0.01452446 C71.17473476 0.02266287 83.46918055 0.02525708 95.76363245 0.02651245 C115.71215946 0.02869929 135.66068237 0.0353494 155.60920715 0.04481506 C174.9835559 0.0539987 194.35790354 0.06107488 213.73225403 0.06532288 C214.9271493 0.0655856 216.12204456 0.06584832 217.35314878 0.06611901 C223.34778437 0.06742408 229.34241996 0.06868778 235.33705556 0.06993091 C285.04260387 0.08029206 334.7481446 0.0987242 384.45368958 0.12025452 C384.45368958 28.50025452 384.45368958 56.88025452 384.45368958 86.12025452 C372.67423645 86.13483704 360.89478333 86.14941956 348.75837708 86.16444397 C310.99943467 86.21327859 273.24052928 86.27670899 235.48162526 86.3492408 C229.60919509 86.36050796 223.73676468 86.37164657 217.86433411 86.38270569 C216.11080987 86.38601121 216.11080987 86.38601121 214.32186091 86.38938352 C195.43319127 86.42468408 176.54452166 86.449589 157.65583134 86.47060154 C138.25111625 86.49242143 118.8464437 86.52553019 99.44176483 86.56895608 C87.48356032 86.59536653 75.52540872 86.61313984 63.56717652 86.61960056 C55.34908189 86.62488707 47.13105364 86.64121239 38.91299468 86.66592018 C34.1830168 86.67982426 29.45315744 86.6891481 24.72315788 86.68526268 C5.4324218 86.67263163 -13.4638429 86.87692975 -32.54631042 90.12025452 C-33.63410561 90.30298461 -33.63410561 90.30298461 -34.74387646 90.48940623 C-38.70263214 91.16535689 -42.62527605 91.93951464 -46.54631042 92.80775452 C-47.70944763 93.06411682 -48.87258484 93.32047913 -50.07096863 93.58460999 C-96.29751561 104.15768645 -136.53057423 128.60797627 -170.54631042 161.12025452 C-171.29396667 161.82666077 -172.04162292 162.53306702 -172.81193542 163.26087952 C-178.2102824 168.48919981 -182.89035078 174.23046557 -187.54631042 180.12025452 C-188.34037292 181.10896545 -189.13443542 182.09767639 -189.95256042 183.11634827 C-221.04820618 222.52712714 -242.45148399 274.15237494 -242.74943542 324.87025452 C-242.76002487 326.08133377 -242.76002487 326.08133377 -242.77082825 327.31687927 C-243.15260256 383.91237816 -229.95974792 439.10985303 -195.54631042 485.12025452 C-194.71812544 486.2543253 -193.8899995 487.3884392 -193.06193542 488.52259827 C-187.10358641 496.57147116 -180.49645142 503.92141223 -173.54631042 511.12025452 C-172.89710632 511.79669006 -172.24790222 512.47312561 -171.57902527 513.1700592 C-162.45785033 522.63111387 -153.19810393 531.40950962 -142.54631042 539.12025452 C-140.98203308 540.26687561 -140.98203308 540.26687561 -139.38615417 541.43666077 C-131.42270786 547.11073961 -123.11191723 552.11736246 -114.6146698 556.94447327 C-113.30540414 557.68873949 -111.99901704 558.43811234 -110.69670105 559.19447327 C-66.70503007 584.68132371 -17.72408419 589.04687653 31.91462708 589.43666077 C34.17005223 589.45730486 36.42547418 589.47830281 38.68089294 589.49963379 C44.53644662 589.55408676 50.39203056 589.60382512 56.24763489 589.65248108 C63.31662202 589.71224072 70.38555542 589.77803388 77.45449829 589.84278107 C88.12086179 589.93982027 98.78726425 590.02933649 109.45368958 590.12025452 C109.45368958 618.50025452 109.45368958 646.88025452 109.45368958 676.12025452 C95.19067308 676.16041946 80.92781183 676.20058291 66.66478348 676.22076225 C59.00292173 676.23177186 51.34110433 676.24566559 43.67927551 676.27113342 C36.94891938 676.29349403 30.21861121 676.30487488 23.48822021 676.310009 C20.9402491 676.31366053 18.39228014 676.32078856 15.84432983 676.33171463 C-5.35641308 676.41888317 -26.37362416 675.57050181 -47.29631042 671.93275452 C-49.16428284 671.6123822 -49.16428284 671.6123822 -51.06999207 671.28553772 C-81.78197645 665.82110959 -110.31543742 656.25743989 -138.54631042 643.12025452 C-139.43979187 642.70517639 -140.33327332 642.29009827 -141.25382996 641.86244202 C-169.03625905 628.81064733 -194.33222472 611.14609119 -216.96427917 590.45619202 C-219.07059073 588.5506333 -221.20190934 586.6877112 -223.35099792 584.83119202 C-234.02284697 575.50845639 -243.84201466 565.29594854 -252.54631042 554.12025452 C-253.46011252 553.00462077 -254.37697259 551.89148721 -255.29631042 550.78041077 C-266.5524117 537.103403 -276.59551226 522.49126208 -285.39982605 507.11927795 C-286.1991963 505.72548672 -287.00575806 504.33580591 -287.8177948 502.94935608 C-310.09823454 464.81239901 -322.95537107 421.76452487 -328.54631042 378.12025452 C-328.66490417 377.23386292 -328.78349792 376.34747131 -328.90568542 375.43421936 C-332.64363721 346.35940692 -332.40020537 315.02579085 -327.54631042 286.12025452 C-327.37470398 285.06709045 -327.20309753 284.01392639 -327.02629089 282.92884827 C-317.49569242 225.76229153 -293.64964837 170.82224654 -256.54631042 126.12025452 C-256.13799988 125.62702698 -255.72968933 125.13379944 -255.30900574 124.62562561 C-244.03186098 111.03704236 -232.29739668 97.55096153 -218.83537292 86.07337952 C-217.06345131 84.561501 -215.31217657 83.02540611 -213.56974792 81.47962952 C-161.96868547 35.94749084 -95.57473226 8.83681645 -27.54631042 1.12025452 C-26.78169343 1.03083118 -26.01707644 0.94140783 -25.22928923 0.84927469 C-16.8246001 -0.02951673 -8.4390877 -0.01656062 0 0 Z " fill="#0E92E4" transform="translate(1134.5463104248047,-0.1202545166015625)"/>
<path d="M0 0 C189.75 0 379.5 0 575 0 C575 27.72 575 55.44 575 84 C467.09 84 359.18 84 248 84 C248 241.41 248 398.82 248 561 C219.62 561 191.24 561 162 561 C162 403.59 162 246.18 162 84 C108.54 84 55.08 84 0 84 C0 56.28 0 28.56 0 0 Z " fill="#0E92E4" transform="translate(0,462)"/>
<path d="M0 0 C203.94 0 407.88 0 618 0 C618 28.38 618 56.76 618 86 C442.44 86 266.88 86 86 86 C86 180.38 86 274.76 86 372 C57.62 372 29.24 372 0 372 C0 249.24 0 126.48 0 0 Z " fill="#0E92E4" transform="translate(162,0)"/>
<path d="M0 0 C160.71 0 321.42 0 487 0 C487 28.71 487 57.42 487 87 C354.67 87 222.34 87 86 87 C86 138.15 86 189.3 86 242 C57.62 242 29.24 242 0 242 C0 162.14 0 82.28 0 0 Z " fill="#0E92E4" transform="translate(293,130)"/>
<path d="M0 0 C93.06 0 186.12 0 282 0 C282 28.38 282 56.76 282 86 C217.32 86 152.64 86 86 86 C86 200.51 86 315.02 86 433 C57.62 433 29.24 433 0 433 C0 290.11 0 147.22 0 0 Z " fill="#0E92E4" transform="translate(293,590)"/>
<path d="M0 0 C83.4275 0 83.4275 0 100.75 16.65625 C114.77866067 31.26943819 118.60015871 48.99733707 118.4375 68.875 C118.42920166 70.18984375 118.42090332 71.5046875 118.41235352 72.859375 C118.12947216 89.12756977 114.62374851 107.07442132 102.90234375 119.35546875 C73.35499131 144.89845721 39.72332462 137 0 137 C0 91.79 0 46.58 0 0 Z M28 23 C28 53.03 28 83.06 28 114 C54.77613089 114.61805812 54.77613089 114.61805812 77.75 105.3125 C87.81554225 94.96735936 90.18562869 80.95861465 90 67 C89.38218529 53.27524618 87.11006773 42.32290691 77.3671875 32.1328125 C64.23981218 20.30517731 44.04115843 23 28 23 Z " fill="#0E92E4" transform="translate(763,1129)"/>
<path d="M0 0 C13.58791298 10.98297629 20.0917846 28.05935983 22.32666016 44.93359375 C24.66884738 67.58859597 21.98198031 90.47008283 8.44140625 109.29296875 C-0.90455427 120.43107582 -14.16822864 127.08301906 -28.42578125 129.328125 C-49.5220438 130.93883647 -69.01685498 129.28205161 -85.67578125 115.078125 C-99.1917338 102.24760903 -105.22451974 85.22143464 -105.859375 66.77734375 C-105.88289589 64.19021076 -105.88373628 61.60278405 -105.86328125 59.015625 C-105.85990753 58.33936066 -105.85653381 57.66309631 -105.85305786 56.96633911 C-105.70536899 36.48409722 -101.40932338 17.87823784 -86.37890625 2.95703125 C-63.40949298 -17.49060781 -24.67084192 -17.0034144 0 0 Z M-66.42578125 21.328125 C-75.68402499 32.06202768 -78.03091894 47.06418901 -77.61328125 60.8984375 C-76.51013564 75.19336598 -74.59154506 88.50780455 -63.87109375 98.82421875 C-55.92435237 105.23104134 -45.27410487 106.29054484 -35.42578125 105.328125 C-26.72817223 103.70440349 -19.27235082 100.38029189 -14.11328125 93.015625 C-4.85302993 77.80773258 -3.95295639 57.53506687 -7.60595703 40.41430664 C-10.25728294 29.83834878 -14.54241599 22.70722729 -23.42578125 16.328125 C-37.0138506 8.67958287 -54.8864606 11.18148098 -66.42578125 21.328125 Z " fill="#0E92E4" transform="translate(838.42578125,1404.671875)"/>
<path d="M0 0 C13.58791298 10.98297629 20.0917846 28.05935983 22.32666016 44.93359375 C24.66884738 67.58859597 21.98198031 90.47008283 8.44140625 109.29296875 C-0.90455427 120.43107582 -14.16822864 127.08301906 -28.42578125 129.328125 C-49.5220438 130.93883647 -69.01685498 129.28205161 -85.67578125 115.078125 C-99.1917338 102.24760903 -105.22451974 85.22143464 -105.859375 66.77734375 C-105.88289589 64.19021076 -105.88373628 61.60278405 -105.86328125 59.015625 C-105.85990753 58.33936066 -105.85653381 57.66309631 -105.85305786 56.96633911 C-105.70536899 36.48409722 -101.40932338 17.87823784 -86.37890625 2.95703125 C-63.40949298 -17.49060781 -24.67084192 -17.0034144 0 0 Z M-66.42578125 21.328125 C-75.68402499 32.06202768 -78.03091894 47.06418901 -77.61328125 60.8984375 C-76.51013564 75.19336598 -74.59154506 88.50780455 -63.87109375 98.82421875 C-55.92435237 105.23104134 -45.27410487 106.29054484 -35.42578125 105.328125 C-26.72817223 103.70440349 -19.27235082 100.38029189 -14.11328125 93.015625 C-4.85302993 77.80773258 -3.95295639 57.53506687 -7.60595703 40.41430664 C-10.25728294 29.83834878 -14.54241599 22.70722729 -23.42578125 16.328125 C-37.0138506 8.67958287 -54.8864606 11.18148098 -66.42578125 21.328125 Z " fill="#0E92E4" transform="translate(1141.42578125,1138.671875)"/>
<path d="M0 0 C77.56812933 0 77.56812933 0 89 10 C97.15295659 18.47549114 98.9720052 28.52213225 99 40 C98.44549589 48.34167059 95.22405311 55.93601627 89.14453125 61.78515625 C84.46749264 65.43530015 79.24592903 68.25560194 74 71 C74.86625 71.515625 75.7325 72.03125 76.625 72.5625 C89.66414879 81.46952417 93.32883506 99.36998873 98.00683594 113.60888672 C98.8880943 116.28983523 99.77931173 118.96732758 100.671875 121.64453125 C101.23755219 123.3513727 101.80267778 125.05839708 102.3671875 126.765625 C102.6327243 127.56446106 102.89826111 128.36329712 103.17184448 129.18634033 C105 134.76763699 105 134.76763699 105 137 C95.43 137 85.86 137 76 137 C75.19175781 134.54046875 74.38351562 132.0809375 73.55078125 129.546875 C72.75087438 127.12365178 71.94936378 124.70096448 71.14770508 122.27832031 C70.59818104 120.61480937 70.050284 118.95075992 69.50415039 117.28613281 C64.50086945 99.43063377 64.50086945 99.43063377 55 84 C47.47538809 80.71387695 47.47538809 80.71387695 28 80 C28 98.81 28 117.62 28 137 C18.76 137 9.52 137 0 137 C0 91.79 0 46.58 0 0 Z M28 22 C28 33.88 28 45.76 28 58 C32.805625 58.061875 37.61125 58.12375 42.5625 58.1875 C44.06498291 58.21481201 45.56746582 58.24212402 47.11547852 58.27026367 C48.31615967 58.27775635 49.51684082 58.28524902 50.75390625 58.29296875 C51.97408447 58.3086792 53.1942627 58.32438965 54.45141602 58.34057617 C59.12307988 57.89221215 63.11206122 56.62548989 66.7421875 53.5 C71.30929694 47.45251716 71.71824021 42.40495536 71 35 C69.64814415 30.3341661 67.77146597 27.6268161 64 24.5625 C59.26350828 22.09557723 55.60490067 21.87892587 50.265625 21.90234375 C49.09805664 21.90484131 47.93048828 21.90733887 46.72753906 21.90991211 C45.24995117 21.91901611 43.77236328 21.92812012 42.25 21.9375 C35.19625 21.9684375 35.19625 21.9684375 28 22 Z " fill="#0E92E4" transform="translate(635,1129)"/>
<path d="M0 0 C78 0 78 0 89 10 C91.41980596 12.81867508 93.27450534 15.71492362 95 19 C95.3403125 19.64195313 95.680625 20.28390625 96.03125 20.9453125 C99.79920511 29.84187317 99.65421127 42.85121659 96.25 51.8125 C91.5556815 61.31484022 83.69928493 66.28538024 74 70 C74.680625 70.495 75.36125 70.99 76.0625 71.5 C89.09185245 82.5888106 92.81796627 98.98374799 98.00683594 114.73925781 C98.89033336 117.42155201 99.78057947 120.10153796 100.671875 122.78125 C101.23736015 124.4868529 101.80247882 126.19257736 102.3671875 127.8984375 C102.6327243 128.69929779 102.89826111 129.50015808 103.17184448 130.32528687 C105 135.88266259 105 135.88266259 105 137 C95.43 137 85.86 137 76 137 C73.51323675 130.78309187 71.15583401 124.71001272 69.125 118.359375 C68.60971767 116.7785341 68.09408243 115.19780819 67.578125 113.6171875 C66.78444099 111.17409814 65.99364309 108.73018372 65.20898438 106.28417969 C64.43919962 103.88982437 63.65794501 101.49945402 62.875 99.109375 C62.64570801 98.3842572 62.41641602 97.6591394 62.18017578 96.91204834 C60.7040094 92.43863038 59.02407662 88.69265584 56 85 C47.82035204 80.45467684 47.82035204 80.45467684 28 80 C28 98.81 28 117.62 28 137 C18.76 137 9.52 137 0 137 C0 91.79 0 46.58 0 0 Z M28 22 C28 33.88 28 45.76 28 58 C32.785 58.0825 37.57 58.165 42.5 58.25 C43.99337891 58.28641602 45.48675781 58.32283203 47.02539062 58.36035156 C54.47937929 58.42250155 59.76446416 58.25393611 66 54 C70.64120102 48.28775259 71.72550776 43.28145973 71 36 C70.02148294 31.74691798 68.7507622 28.77105307 65.6875 25.625 C60.5528649 22.52033692 56.02261332 21.75201227 50.0703125 21.8046875 C48.32645264 21.81218018 48.32645264 21.81218018 46.54736328 21.81982422 C44.35829346 21.84713623 44.35829346 21.84713623 42.125 21.875 C35.133125 21.936875 35.133125 21.936875 28 22 Z " fill="#0E92E4" transform="translate(889,1395)"/>
<path d="M0 0 C11.88 0 23.76 0 36 0 C40.69062539 13.54509147 45.37989656 27.0906498 50.06716919 40.63690186 C52.22894752 46.88416998 54.3916207 53.13112653 56.55615234 59.37744141 C65.50711567 85.20777181 74.43931918 111.03727947 83 137 C73.1 137 63.2 137 53 137 C49.7 127.1 46.4 117.2 43 107 C25.84 106.67 8.68 106.34 -9 106 C-9.66 108.97 -10.32 111.94 -11 115 C-11.54504164 116.90611559 -12.11660637 118.80506043 -12.7265625 120.69140625 C-13.00580566 121.56224854 -13.28504883 122.43309082 -13.57275391 123.33032227 C-13.91999512 124.39694092 -14.26723633 125.46355957 -14.625 126.5625 C-15.73875 130.006875 -16.8525 133.45125 -18 137 C-27.57 137 -37.14 137 -47 137 C-44.75003628 126.87516326 -44.75003628 126.87516326 -43.14672852 122.25146484 C-42.78708511 121.20643295 -42.42744171 120.16140106 -42.05690002 119.08470154 C-41.66816208 117.97135941 -41.27942413 116.85801727 -40.87890625 115.7109375 C-40.26081337 113.92134361 -40.26081337 113.92134361 -39.63023376 112.09559631 C-38.51219976 108.85873722 -37.38816037 105.6239946 -36.2628479 102.38965988 C-35.08471372 99.00057332 -33.91170337 95.60971444 -32.73828125 92.21899414 C-31.28617849 88.0240437 -29.83345935 83.82931036 -28.37820435 79.63545227 C-25.30897888 70.78948133 -22.25588927 61.93813821 -19.21781731 53.0814209 C-17.72190106 48.72166923 -16.22307282 44.36291742 -14.724823 40.00396729 C-13.9153413 37.64690018 -13.10699154 35.289444 -12.29983521 32.93157959 C-11.17229461 29.63931533 -10.03982186 26.3487854 -8.90625 23.05859375 C-8.58309311 22.11105728 -8.25993622 21.16352081 -7.92698669 20.18727112 C-5.54700229 13.30140141 -2.81720155 6.76128372 0 0 Z M16 29 C13.57688508 36.38661629 11.15604431 43.77397498 8.73681641 51.16186523 C7.91280177 53.67733827 7.08825814 56.19263809 6.26318359 58.70776367 C5.08032787 62.31384062 3.89934882 65.92052738 2.71875 69.52734375 C2.34689575 70.65961899 1.9750415 71.79189423 1.59191895 72.95848083 C1.25156616 73.99948441 0.91121338 75.04048798 0.56054688 76.11303711 C0.2585437 77.03459091 -0.04345947 77.95614471 -0.35461426 78.90562439 C-1.04908117 80.79401604 -1.04908117 80.79401604 -1 82 C10.88 82 22.76 82 35 82 C33.09304983 75.00784936 31.1487178 68.12131536 28.8984375 61.24609375 C28.4755394 59.94479271 28.4755394 59.94479271 28.0440979 58.61720276 C27.45545037 56.80779084 26.86554721 54.99878694 26.27441406 53.19018555 C25.36720446 50.41364149 24.46457234 47.63563872 23.5625 44.85742188 C22.98724521 43.09105917 22.41173387 41.32477999 21.8359375 39.55859375 C21.56615082 38.72847275 21.29636414 37.89835175 21.0184021 37.04307556 C19.70697192 32.94313379 19.70697192 32.94313379 18 29 C17.34 29 16.68 29 16 29 Z " fill="#0E92E4" transform="translate(175,1129)"/>
<path d="M0 0 C12.21 0 24.42 0 37 0 C38.05316406 3.11050781 39.10632813 6.22101563 40.19140625 9.42578125 C47.2618924 30.28883524 54.35464721 51.14311877 61.625 71.9375 C61.92448547 72.79411224 62.22397095 73.65072449 62.53253174 74.53329468 C64.36240526 79.7651181 66.1950624 84.99596386 68.02825928 90.22662354 C70.82855091 98.21873782 73.62427422 106.21244739 76.41741943 114.20706177 C77.42034432 117.07592621 78.42519812 119.94410999 79.43017578 122.81225586 C80.0355718 124.5440766 80.64088257 126.27592715 81.24609375 128.0078125 C81.5265303 128.80656296 81.80696686 129.60531342 82.09590149 130.42826843 C84 135.8861627 84 135.8861627 84 137 C74.1 137 64.2 137 54 137 C52.57298741 132.90753175 51.14786175 128.8145072 49.72753906 124.71972656 C49.24362265 123.32643703 48.7586014 121.93353072 48.27246094 120.54101562 C47.57457494 118.5413586 46.8806516 116.54036477 46.1875 114.5390625 C45.76855469 113.33459473 45.34960938 112.13012695 44.91796875 110.88916016 C44 108 44 108 44 106 C26.84 106 9.68 106 -8 106 C-8.66 108.97 -9.32 111.94 -10 115 C-10.53041432 116.82255032 -11.08920599 118.63739337 -11.69140625 120.4375 C-11.99626953 121.35144531 -12.30113281 122.26539063 -12.61523438 123.20703125 C-12.92783203 124.12871094 -13.24042969 125.05039063 -13.5625 126 C-13.87896484 126.95261719 -14.19542969 127.90523437 -14.52148438 128.88671875 C-16.86624765 135.86624765 -16.86624765 135.86624765 -18 137 C-20.14558827 137.08775605 -22.29404421 137.10695219 -24.44140625 137.09765625 C-25.74658203 137.09443359 -27.05175781 137.09121094 -28.39648438 137.08789062 C-29.7851569 137.07953401 -31.17382877 137.07106905 -32.5625 137.0625 C-33.95507656 137.05748666 -35.34765481 137.05292347 -36.74023438 137.04882812 C-40.1601987 137.03699434 -43.58007844 137.0205088 -47 137 C-38.06669672 109.85259481 -28.76179044 82.83893039 -19.37841797 55.84423828 C-16.93795127 48.82302478 -14.50179053 41.80032151 -12.06640625 34.77734375 C-8.0460423 23.18428041 -4.02356843 11.59195159 0 0 Z M17 29 C14.89610023 35.26077335 12.79700912 41.5231442 10.70117188 47.78662109 C9.98839802 49.91491725 9.27454507 52.04285235 8.55957031 54.17041016 C7.52902333 57.23765097 6.50243013 60.30619143 5.4765625 63.375 C4.99988632 64.78954468 4.99988632 64.78954468 4.51358032 66.23266602 C4.2134201 67.13299561 3.91325989 68.0333252 3.60400391 68.9609375 C3.34197174 69.74259277 3.07993958 70.52424805 2.80996704 71.32958984 C1.74239293 74.84931422 0.89206219 78.43175124 0 82 C11.88 82 23.76 82 36 82 C34.04026261 74.81429623 32.01949726 67.77886 29.64453125 60.73828125 C29.18478157 59.36327705 29.18478157 59.36327705 28.71574402 57.960495 C27.75084807 55.07686516 26.78175628 52.19466676 25.8125 49.3125 C25.1514127 47.3392865 24.490603 45.36597997 23.83007812 43.39257812 C22.22325322 38.59397268 20.61266781 33.79664481 19 29 C18.34 29 17.68 29 17 29 Z " fill="#0E92E4" transform="translate(940,1129)"/>
<path d="M0 0 C8.91 0 17.82 0 27 0 C27.01458252 2.69905518 27.02916504 5.39811035 27.04418945 8.17895508 C27.09467756 17.12769876 27.16129738 26.07627103 27.23571491 35.02484608 C27.28031477 40.4468059 27.31959357 45.86869237 27.34643555 51.29077148 C27.37257236 56.52993039 27.41304751 61.76880547 27.46318626 67.0077877 C27.47978504 68.99986917 27.4913426 70.99199965 27.49761391 72.9841404 C27.00319051 91.74531324 27.00319051 91.74531324 35 108 C44.59719623 113.88008517 53.65730811 115.3597205 64.828125 113.5390625 C70.67932612 112.01344258 75.12952316 109.69639897 79 105 C82.4766522 98.48172692 83.58901372 92.44968783 83.54589844 85.14404297 C83.56140495 83.75196877 83.56140495 83.75196877 83.57722473 82.33177185 C83.60643318 79.30172866 83.60814724 76.27235981 83.609375 73.2421875 C83.62437148 71.12654361 83.64110169 69.01091136 83.65948486 66.89529419 C83.7030056 61.35517816 83.7231236 55.81522004 83.73822021 50.27496338 C83.75784647 44.61029788 83.79981022 38.94580153 83.83984375 33.28125 C83.91498055 22.18752373 83.96330497 11.0939201 84 0 C93.24 0 102.48 0 112 0 C112.06806765 11.99701065 112.12298353 23.99389077 112.15543652 35.99105167 C112.17102073 41.56319986 112.19212508 47.13520786 112.22631836 52.70727539 C112.25917215 58.09544164 112.27690733 63.48347394 112.28463173 68.87173271 C112.29012891 70.91638735 112.30086197 72.96103557 112.31719017 75.0056324 C112.45746122 93.31636192 111.20138228 108.58076398 100.8125 124.3125 C88.07382664 136.4850101 73.38955944 139.17873543 56.4375 139.25 C55.23802734 139.270625 54.03855469 139.29125 52.80273438 139.3125 C37.34311602 139.37924417 23.45762454 136.04918783 12.03515625 125.2109375 C-0.91398796 111.14334513 -0.57349398 93.03161409 -0.390625 75.09765625 C-0.38314797 72.92191594 -0.37746197 70.74616881 -0.37347412 68.57041931 C-0.35833286 62.89373591 -0.31915241 57.21747365 -0.2746582 51.54095459 C-0.23345488 45.72853285 -0.21541 39.91604187 -0.1953125 34.10351562 C-0.15264515 22.73546399 -0.08239168 11.36783319 0 0 Z " fill="#0E92E4" transform="translate(1191,1129)"/>
<path d="M0 0 C2.80137143 2.20435784 5.4408992 4.51953079 8 7 C6.47757293 11.63687788 3.94259205 14.9343228 0.9375 18.6875 C-2.32558304 22.64929631 -2.32558304 22.64929631 -5 27 C-8.79335255 26.45148386 -11.07363656 25.47892312 -14.125 23.1875 C-24.6203374 16.04722947 -34.6230792 14.93876851 -47 16 C-50.0188772 16.708817 -52.20755394 17.60377697 -55 19 C-55.99 19.33 -56.98 19.66 -58 20 C-60.97959915 25.17509326 -60.45921995 30.74564752 -59.3125 36.375 C-57.63486444 39.73027112 -56.47409069 39.80408258 -53 41 C-51.78570313 41.42539063 -51.78570313 41.42539063 -50.546875 41.859375 C-45.09101135 43.59671706 -39.66982341 45.10073527 -34.08203125 46.34765625 C-1.09137195 53.71671245 -1.09137195 53.71671245 8.296875 67.96875 C14.24714398 78.83445856 14.67522036 92.05546496 11.375 103.8125 C7.63266697 114.54399855 1.72331999 121.73149845 -8.26171875 127.25 C-24.55271314 134.9832469 -46.63734334 134.41430684 -63.62890625 129.25390625 C-75.62836687 124.79060746 -86.52807002 118.47296678 -93 107 C-88.2318928 100.47423759 -83.1505761 94.22647422 -78 88 C-75.0968635 88.34067418 -73.43787558 88.57919755 -71.296875 90.63671875 C-70.78640625 91.31347656 -70.2759375 91.99023438 -69.75 92.6875 C-63.35976138 100.42232245 -54.82004057 105.02907636 -45 107 C-36.57916977 107.59798678 -28.16473393 108.12455185 -21 103 C-17.39380639 99.39380639 -16.72136162 96.44374279 -16.5 91.5 C-16.71421773 86.56629785 -17.45288298 83.63579495 -21 80 C-28.93904914 75.19941733 -37.91441148 73.65929414 -46.86230469 71.65087891 C-60.79714728 68.49624842 -75.14460788 64.09826143 -83.59375 51.65234375 C-89.44215855 40.92459435 -90.26596177 29.05089874 -87.31640625 17.26953125 C-84.07154285 7.96758951 -77.45556791 0.94124455 -68.84375 -3.71484375 C-48.41756116 -12.94590986 -19.12830801 -12.52529777 0 0 Z " fill="#0E92E4" transform="translate(589,1402)"/>
<path d="M0 0 C2.80137143 2.20435784 5.4408992 4.51953079 8 7 C6.47757293 11.63687788 3.94259205 14.9343228 0.9375 18.6875 C-2.32558304 22.64929631 -2.32558304 22.64929631 -5 27 C-8.79335255 26.45148386 -11.07363656 25.47892312 -14.125 23.1875 C-24.6203374 16.04722947 -34.6230792 14.93876851 -47 16 C-50.0188772 16.708817 -52.20755394 17.60377697 -55 19 C-55.99 19.33 -56.98 19.66 -58 20 C-60.97959915 25.17509326 -60.45921995 30.74564752 -59.3125 36.375 C-57.63486444 39.73027112 -56.47409069 39.80408258 -53 41 C-51.78570313 41.42539063 -51.78570313 41.42539063 -50.546875 41.859375 C-45.09101135 43.59671706 -39.66982341 45.10073527 -34.08203125 46.34765625 C-1.09137195 53.71671245 -1.09137195 53.71671245 8.296875 67.96875 C14.24714398 78.83445856 14.67522036 92.05546496 11.375 103.8125 C7.63266697 114.54399855 1.72331999 121.73149845 -8.26171875 127.25 C-24.55271314 134.9832469 -46.63734334 134.41430684 -63.62890625 129.25390625 C-75.62836687 124.79060746 -86.52807002 118.47296678 -93 107 C-88.2318928 100.47423759 -83.1505761 94.22647422 -78 88 C-75.0968635 88.34067418 -73.43787558 88.57919755 -71.296875 90.63671875 C-70.78640625 91.31347656 -70.2759375 91.99023438 -69.75 92.6875 C-63.35976138 100.42232245 -54.82004057 105.02907636 -45 107 C-36.57916977 107.59798678 -28.16473393 108.12455185 -21 103 C-17.39380639 99.39380639 -16.72136162 96.44374279 -16.5 91.5 C-16.71421773 86.56629785 -17.45288298 83.63579495 -21 80 C-28.93904914 75.19941733 -37.91441148 73.65929414 -46.86230469 71.65087891 C-60.79714728 68.49624842 -75.14460788 64.09826143 -83.59375 51.65234375 C-89.44215855 40.92459435 -90.26596177 29.05089874 -87.31640625 17.26953125 C-84.07154285 7.96758951 -77.45556791 0.94124455 -68.84375 -3.71484375 C-48.41756116 -12.94590986 -19.12830801 -12.52529777 0 0 Z " fill="#0E92E4" transform="translate(1417,1136)"/>
<path d="M0 0 C30.03 0 60.06 0 91 0 C91 7.59 91 15.18 91 23 C70.21 23 49.42 23 28 23 C28 33.23 28 43.46 28 54 C46.15 54 64.3 54 83 54 C83 61.59 83 69.18 83 77 C64.85 77 46.7 77 28 77 C28 89.21 28 101.42 28 114 C49.45 114 70.9 114 93 114 C93 121.59 93 129.18 93 137 C62.31 137 31.62 137 0 137 C0 91.79 0 46.58 0 0 Z " fill="#0E92E4" transform="translate(1017,1395)"/>
<path d="M0 0 C29.04 0 58.08 0 88 0 C88 7.59 88 15.18 88 23 C68.2 23 48.4 23 28 23 C28 34.88 28 46.76 28 59 C46.15 59 64.3 59 83 59 C83 66.59 83 74.18 83 82 C64.85 82 46.7 82 28 82 C28 100.15 28 118.3 28 137 C18.76 137 9.52 137 0 137 C0 91.79 0 46.58 0 0 Z " fill="#0E92E4" transform="translate(461,1129)"/>
<path d="M0 0 C35.31 0 70.62 0 107 0 C107 7.59 107 15.18 107 23 C93.8 23 80.6 23 67 23 C67 60.62 67 98.24 67 137 C58.09 137 49.18 137 40 137 C40 99.38 40 61.76 40 23 C26.8 23 13.6 23 0 23 C0 15.41 0 7.82 0 0 Z " fill="#0E92E4" transform="translate(612,1395)"/>
<path d="M0 0 C9.24 0 18.48 0 28 0 C28 37.62 28 75.24 28 114 C48.13 114 68.26 114 89 114 C89 121.59 89 129.18 89 137 C59.63 137 30.26 137 0 137 C0 91.79 0 46.58 0 0 Z " fill="#0E92E4" transform="translate(277,1129)"/>
<path d="M0 0 C9.24 0 18.48 0 28 0 C28 45.21 28 90.42 28 137 C18.76 137 9.52 137 0 137 C0 91.79 0 46.58 0 0 Z " fill="#0E92E4" transform="translate(572,1129)"/>
<path d="M0 0 C19.14 0 38.28 0 58 0 C58 7.59 58 15.18 58 23 C38.86 23 19.72 23 0 23 C0 15.41 0 7.82 0 0 Z " fill="#0E92E4" transform="translate(378,1188)"/>
</svg>
